<svg width="392" height="266" viewBox="0 0 392 266" fill="none" xmlns="http://www.w3.org/2000/svg">
<g clip-path="url(#clip0_73_517)">
<path d="M64.9198 185.202H6.23058C4.26598 185.202 2.73677 185.709 1.64508 186.725C0.549111 187.741 0.00219727 189.232 0.00219727 191.19C0.00219727 193.147 0.549111 194.563 1.64508 195.654C2.73891 196.748 4.26598 197.291 6.23058 197.291H28.3238V258.318C28.3238 260.654 28.9479 262.481 30.194 263.796C31.4401 265.116 33.231 265.775 35.5731 265.775C37.9151 265.775 39.8047 265.116 41.0122 263.796C42.2197 262.481 42.8245 260.654 42.8245 258.318V197.291H64.9177C66.8801 197.291 68.4072 196.748 69.5032 195.654C70.5991 194.563 71.146 193.074 71.146 191.19C71.146 189.305 70.5991 187.743 69.5032 186.725C68.4072 185.709 66.8801 185.202 64.9177 185.202H64.9198Z" fill="url(#paint0_linear_73_517)"/>
<path d="M138.672 240.347C136.932 237.11 134.916 234.738 132.611 233.23C131.54 232.53 130.374 232.008 129.132 231.634C131.086 231.178 132.93 230.609 134.595 229.839C138.672 227.954 141.788 225.244 143.941 221.701C146.093 218.162 147.171 213.941 147.171 209.044C147.171 201.514 144.793 195.654 140.032 191.474C135.275 187.292 128.514 185.202 119.753 185.202H92.4479C90.1058 185.202 88.2935 185.822 87.011 187.065C85.7262 188.308 85.085 190.137 85.085 192.546V258.318C85.085 260.654 85.7069 262.481 86.9531 263.796C88.1992 265.116 89.9922 265.775 92.3343 265.775C94.6763 265.775 96.5659 265.116 97.7734 263.796C98.9809 262.481 99.5857 260.654 99.5857 258.318V233.003H110.346C113.218 233.003 115.575 233.437 117.428 234.301C119.279 235.168 120.883 236.884 122.243 239.444L133.687 260.465C134.668 262.273 135.8 263.61 137.085 264.475C138.367 265.341 140.029 265.775 142.071 265.775C144.113 265.775 145.657 265.305 146.715 264.361C147.772 263.42 148.338 262.198 148.413 260.69C148.486 259.182 148.074 257.637 147.167 256.054L138.67 240.347H138.672ZM117.261 222.266H99.5878V196.613H117.261C122.47 196.613 126.417 197.687 129.1 199.835C131.781 201.98 133.123 205.166 133.123 209.382C133.123 213.599 131.783 216.898 129.1 219.044C126.419 221.189 122.472 222.266 117.261 222.266Z" fill="url(#paint1_linear_73_517)"/>
<path d="M208.805 190.398C207.823 188.214 206.633 186.652 205.236 185.709C203.838 184.768 202.27 184.297 200.535 184.297C198.8 184.297 197.116 184.768 195.72 185.709C194.322 186.652 193.134 188.216 192.151 190.398L162.24 256.508C161.483 258.243 161.222 259.805 161.447 261.197C161.674 262.592 162.335 263.705 163.431 264.532C164.525 265.36 165.981 265.775 167.793 265.775C169.756 265.775 171.266 265.283 172.325 264.306C173.383 263.328 174.401 261.747 175.384 259.561L180.954 246.451H219.917L225.575 259.561C226.482 261.67 227.518 263.232 228.689 264.248C229.863 265.268 231.503 265.775 233.618 265.775C235.358 265.775 236.754 265.382 237.811 264.588C238.868 263.797 239.51 262.688 239.737 261.257C239.964 259.826 239.66 258.243 238.83 256.51L208.808 190.4L208.805 190.398ZM200.308 200.909H200.535L214.974 234.924H185.97L200.308 200.909Z" fill="url(#paint2_linear_73_517)"/>
<path d="M317.114 248.823C316.206 247.996 315.093 247.523 313.77 247.409C312.446 247.296 310.956 247.732 309.294 248.71C306.801 250.218 304.157 251.326 301.365 252.045C298.57 252.76 295.737 253.117 292.867 253.117C287.503 253.117 282.973 252.026 279.271 249.84C275.569 247.655 272.775 244.453 270.89 240.234C269 236.017 268.059 230.93 268.059 224.979C268.059 219.027 269.002 213.867 270.89 209.723C272.775 205.581 275.572 202.417 279.271 200.233C282.973 198.046 287.503 196.953 292.867 196.953C295.662 196.953 298.42 197.291 301.139 197.974C303.859 198.652 306.388 199.745 308.73 201.251C310.392 202.308 311.919 202.774 313.319 202.663C314.716 202.55 315.889 202.043 316.83 201.14C317.776 200.235 318.398 199.125 318.701 197.805C319.001 196.489 318.887 195.133 318.362 193.738C317.832 192.345 316.777 191.158 315.19 190.178C312.168 188.221 308.655 186.712 304.652 185.658C300.648 184.601 296.571 184.077 292.417 184.077C286.223 184.077 280.653 185.035 275.707 186.956C270.757 188.877 266.585 191.628 263.186 195.208C259.788 198.787 257.182 203.08 255.37 208.091C253.556 213.099 252.648 218.732 252.648 224.983C252.648 233.348 254.238 240.598 257.408 246.738C260.58 252.878 265.129 257.627 271.059 260.977C276.989 264.329 284.108 266.007 292.414 266.007C296.721 266.007 300.968 265.423 305.161 264.254C309.352 263.089 312.959 261.413 315.979 259.227C317.339 258.247 318.244 257.098 318.698 255.781C319.151 254.465 319.226 253.181 318.926 251.938C318.623 250.693 318.019 249.66 317.114 248.83V248.823Z" fill="url(#paint3_linear_73_517)"/>
<path d="M386.109 253.344H351.895V230.179H383.618C385.581 230.179 387.054 229.687 388.037 228.707C389.017 227.73 389.51 226.298 389.51 224.414C389.51 222.529 389.017 221.1 388.037 220.12C387.054 219.142 385.581 218.65 383.618 218.65H351.895V196.724H386.109C387.994 196.724 389.452 196.217 390.471 195.201C391.49 194.185 391.998 192.734 391.998 190.85C391.998 188.965 391.49 187.649 390.471 186.669C389.452 185.69 387.994 185.2 386.109 185.2H345.661C343.168 185.2 341.262 185.859 339.938 187.176C338.615 188.496 337.957 190.398 337.957 192.884V257.184C337.957 259.672 338.615 261.574 339.938 262.892C341.262 264.212 343.168 264.87 345.661 264.87H386.109C387.994 264.87 389.452 264.383 390.471 263.401C391.49 262.423 391.998 260.992 391.998 259.107C391.998 257.222 391.49 255.791 390.471 254.811C389.452 253.834 387.994 253.342 386.109 253.342V253.344Z" fill="url(#paint4_linear_73_517)"/>
<path d="M148.538 101.873C148.538 100.867 149.355 100.05 150.365 100.05H158.279C151.21 92.5517 146.374 82.9396 144.834 72.2751L138.753 66.2101C138.039 65.4977 136.883 65.4977 136.171 66.2101L130.968 71.4001C132.437 86.1251 138.854 99.4146 148.54 109.589V101.871L148.538 101.873Z" fill="#007F41"/>
<path d="M258.264 69.1494L255.317 72.0889C254.602 72.8013 253.446 72.8013 252.734 72.0889L249.787 69.1494L247.167 66.5352C247.137 67.3182 247.096 68.099 247.036 68.8734C246.27 78.847 242.635 88.0269 236.958 95.5979V104.207C236.958 105.212 237.775 106.029 238.785 106.029H246.107C254.984 95.23 260.441 81.534 260.822 66.6015L258.268 69.1494H258.264Z" fill="#007F41"/>
<path d="M136.169 57.7554C136.883 57.043 138.039 57.043 138.751 57.7554L141.698 60.6948L144.323 63.3134C144.662 52.4306 148.398 42.3843 154.528 34.2185V25.6376C154.528 24.6322 153.711 23.8149 152.701 23.8149H145.374C136.497 34.6186 131.034 48.3167 130.655 63.2535L133.22 60.6948L136.167 57.7554H136.169Z" fill="#006E3B"/>
<path d="M202.929 5.49808C203.643 6.21047 203.643 7.36357 202.929 8.07383L199.982 11.0133L197.357 13.6318C208.267 13.9698 218.339 17.6965 226.525 23.8107H235.128C236.136 23.8107 236.955 22.9957 236.955 21.988V14.6801C226.122 5.82754 212.389 0.378661 197.415 0L199.98 2.55864L202.927 5.49808H202.929Z" fill="#006136"/>
<path d="M232.788 112.009C231.78 112.009 230.961 111.194 230.961 110.186V102.292C226.139 106.817 220.445 110.428 214.157 112.839L202.446 129.521L195.744 139.069L189.041 129.521L177.331 112.839C172.889 111.134 168.746 108.83 164.992 106.029H156.362C155.354 106.029 154.534 106.844 154.534 107.852V115.152C158.749 118.598 163.401 121.533 168.396 123.848L187.013 150.367C191.257 156.413 200.233 156.413 204.475 150.367L223.092 123.848C229.545 120.857 235.422 116.835 240.524 112.007H232.788V112.009Z" fill="#009348"/>
<path d="M242.948 27.9716C242.948 28.9771 242.131 29.7943 241.12 29.7943H233.21C240.286 37.2969 245.127 46.9111 246.667 57.5821L252.732 63.6321C253.446 64.3445 254.602 64.3445 255.314 63.6321L260.524 58.4356C259.053 43.7106 252.631 30.4168 242.946 20.2422V27.9716H242.948Z" fill="#006E3B"/>
<path d="M158.697 17.8355C159.705 17.8355 160.525 18.6506 160.525 19.6582V27.5481C168.046 20.4904 177.685 15.662 188.383 14.1259L194.448 8.0759C195.162 7.3635 195.162 6.2104 194.448 5.50014L189.239 0.303711C174.476 1.77129 161.149 8.17645 150.948 17.8377H158.697V17.8355Z" fill="#006136"/>
<path d="M195.742 93.6533C179.86 93.6533 166.938 80.7639 166.938 64.9221C166.938 49.0804 179.86 36.1909 195.742 36.1909C211.624 36.1909 224.546 49.0804 224.546 64.9221C224.546 80.7639 211.624 93.6533 195.742 93.6533ZM195.742 49.8056C187.386 49.8056 180.587 56.5873 180.587 64.9221C180.587 73.2569 187.386 80.0386 195.742 80.0386C204.098 80.0386 210.897 73.2569 210.897 64.9221C210.897 56.5873 204.098 49.8056 195.742 49.8056Z" fill="#7DBE42"/>
</g>
<defs>
<linearGradient id="paint0_linear_73_517" x1="35.5752" y1="265.775" x2="35.5752" y2="185.202" gradientUnits="userSpaceOnUse">
<stop stop-color="#00AA4C"/>
<stop offset="1" stop-color="#005F35"/>
</linearGradient>
<linearGradient id="paint1_linear_73_517" x1="116.754" y1="-9.61964e-05" x2="116.754" y2="-9.61964e-05" gradientUnits="userSpaceOnUse">
<stop stop-color="#00AA4C"/>
<stop offset="1" stop-color="#005F35"/>
</linearGradient>
<linearGradient id="paint2_linear_73_517" x1="200.587" y1="3.38704e-05" x2="200.587" y2="184.297" gradientUnits="userSpaceOnUse">
<stop stop-color="#00AA4C"/>
<stop offset="1" stop-color="#005F35"/>
</linearGradient>
<linearGradient id="paint3_linear_73_517" x1="285.877" y1="266" x2="285.877" y2="184.072" gradientUnits="userSpaceOnUse">
<stop stop-color="#00AA4C"/>
<stop offset="1" stop-color="#005F35"/>
</linearGradient>
<linearGradient id="paint4_linear_73_517" x1="364.981" y1="264.87" x2="364.981" y2="7.33503e-05" gradientUnits="userSpaceOnUse">
<stop stop-color="#00AA4C"/>
<stop offset="1" stop-color="#005F35"/>
</linearGradient>
<clipPath id="clip0_73_517">
<rect width="392" height="266" fill="white"/>
</clipPath>
</defs>
</svg>
