<svg width="338" height="345" viewBox="0 0 338 345" fill="none" xmlns="http://www.w3.org/2000/svg">
<rect x="27" y="56" width="284" height="289" rx="72" fill="#2B2B2B"/>
<rect width="338" height="345" rx="108" fill="#252525"/>
<g clip-path="url(#clip0_5_3)">
<path d="M89.9478 227.167C89.9478 225.377 91.3183 223.925 93.0077 223.925H106.264C94.4244 210.593 86.3258 193.499 83.7436 174.533L73.5604 163.747C72.3652 162.482 70.4294 162.482 69.2342 163.747L60.5206 172.977C62.9821 199.161 73.7307 222.795 89.9495 240.89V227.165L89.9478 227.167Z" fill="#007F41"/>
<path d="M273.72 168.973L268.783 174.2C267.588 175.466 265.653 175.466 264.458 174.2L259.521 168.973L255.131 164.322C255.082 165.714 255.013 167.102 254.913 168.48C253.632 186.215 247.541 202.54 238.032 216.007V231.316C238.032 233.106 239.403 234.557 241.092 234.557H253.354C268.223 215.351 277.36 190.996 278 164.439L273.72 168.973Z" fill="#007F41"/>
<path d="M69.2327 148.709C70.4278 147.443 72.3637 147.443 73.5589 148.709L78.4951 153.937L82.8907 158.593C83.4577 139.239 89.7148 121.374 99.9824 106.852V91.5931C99.9824 89.8037 98.6119 88.3521 96.9224 88.3521H84.6497C69.7831 107.565 60.6365 131.925 60 158.489L64.2965 153.939L69.2327 148.711V148.709Z" fill="#006E3B"/>
<path d="M181.043 55.7787C182.238 57.0446 182.238 59.0949 181.043 60.3608L176.106 65.589L171.711 70.2445C189.985 70.8451 206.851 77.4723 220.562 88.347H234.97C236.659 88.347 238.029 86.8956 238.029 85.1061V72.1075C219.889 56.3618 196.889 46.6741 171.81 46L176.106 50.5506L181.043 55.7787Z" fill="#006136"/>
<path d="M231.052 245.192C229.362 245.192 227.992 243.741 227.992 241.951V227.912C219.915 235.958 210.379 242.38 199.847 246.67L180.233 276.337L169.007 293.317L157.781 276.337L138.166 246.668C130.726 243.637 123.786 239.538 117.502 234.559H103.047C101.358 234.559 99.9875 236.01 99.9875 237.8V250.781C107.046 256.91 114.836 262.128 123.204 266.248L154.382 313.408C161.488 324.159 176.522 324.159 183.628 313.408L214.806 266.248C225.615 260.929 235.459 253.777 244.004 245.189H231.049L231.052 245.192Z" fill="#009348"/>
<path d="M248.069 95.7429C248.069 97.5322 246.699 98.9838 245.009 98.9838H231.761C243.609 112.327 251.719 129.425 254.296 148.401L264.455 159.16C265.65 160.426 267.585 160.426 268.781 159.16L277.507 149.917C275.045 123.731 264.288 100.09 248.067 81.9948V95.7411L248.069 95.7429Z" fill="#006E3B"/>
<path d="M106.967 77.7175C108.656 77.7175 110.027 79.169 110.027 80.9584V94.99C122.625 82.4414 138.768 73.8515 156.684 71.1219L166.845 60.3609C168.04 59.095 168.04 57.0447 166.845 55.7788L158.119 46.5376C133.395 49.1465 111.075 60.5395 93.9897 77.7192H106.968L106.967 77.7175Z" fill="#006136"/>
<path d="M169.008 212.55C142.408 212.55 120.767 189.629 120.767 161.456C120.767 133.282 142.408 110.361 169.008 110.361C195.609 110.361 217.249 133.282 217.249 161.456C217.249 189.629 195.609 212.55 169.008 212.55ZM169.008 134.574C155.013 134.574 143.628 146.634 143.628 161.456C143.628 176.277 155.015 188.337 169.008 188.337C183.002 188.337 194.389 176.277 194.389 161.456C194.389 146.634 183.002 134.574 169.008 134.574Z" fill="#7DBE42"/>
</g>
<g clip-path="url(#clip1_5_3)">
<path d="M89.9478 227.167C89.9478 225.377 91.3183 223.925 93.0077 223.925H106.264C94.4244 210.593 86.3258 193.499 83.7436 174.533L73.5604 163.747C72.3652 162.482 70.4294 162.482 69.2342 163.747L60.5206 172.977C62.9821 199.161 73.7307 222.795 89.9495 240.89V227.165L89.9478 227.167Z" fill="#007F41"/>
<path d="M273.72 168.973L268.783 174.2C267.588 175.466 265.653 175.466 264.458 174.2L259.521 168.973L255.131 164.322C255.082 165.714 255.013 167.102 254.913 168.48C253.632 186.215 247.541 202.54 238.032 216.007V231.316C238.032 233.106 239.403 234.557 241.092 234.557H253.354C268.223 215.351 277.36 190.996 278 164.439L273.72 168.973Z" fill="#077A47"/>
<path d="M69.2327 148.709C70.4278 147.443 72.3637 147.443 73.5589 148.709L78.4951 153.937L82.8907 158.593C83.4577 139.239 89.7148 121.374 99.9824 106.852V91.5931C99.9824 89.8037 98.6119 88.3521 96.9224 88.3521H84.6497C69.7831 107.565 60.6365 131.925 60 158.489L64.2965 153.939L69.2327 148.711V148.709Z" fill="#077A47"/>
<path d="M181.043 55.7787C182.238 57.0446 182.238 59.0949 181.043 60.3608L176.106 65.589L171.711 70.2445C189.985 70.8451 206.851 77.4723 220.562 88.347H234.97C236.659 88.347 238.029 86.8956 238.029 85.1061V72.1075C219.889 56.3618 196.889 46.6741 171.81 46L176.106 50.5506L181.043 55.7787Z" fill="#077A47"/>
<path d="M231.052 245.192C229.362 245.192 227.992 243.741 227.992 241.951V227.912C219.915 235.958 210.379 242.38 199.847 246.67L180.233 276.337L169.007 293.317L157.781 276.337L138.166 246.668C130.726 243.637 123.786 239.538 117.502 234.559H103.047C101.358 234.559 99.9875 236.01 99.9875 237.8V250.781C107.046 256.91 114.836 262.128 123.204 266.248L154.382 313.408C161.488 324.159 176.522 324.159 183.628 313.408L214.806 266.248C225.615 260.929 235.459 253.777 244.004 245.189H231.049L231.052 245.192Z" fill="#009348"/>
<path d="M248.069 95.7429C248.069 97.5322 246.699 98.9838 245.009 98.9838H231.761C243.609 112.327 251.719 129.425 254.296 148.401L264.455 159.16C265.65 160.426 267.585 160.426 268.781 159.16L277.507 149.917C275.045 123.731 264.288 100.09 248.067 81.9948V95.7411L248.069 95.7429Z" fill="#077A47"/>
<path d="M106.967 77.7175C108.656 77.7175 110.027 79.169 110.027 80.9584V94.99C122.625 82.4414 138.768 73.8515 156.684 71.1219L166.845 60.3609C168.04 59.095 168.04 57.0447 166.845 55.7788L158.119 46.5376C133.395 49.1465 111.075 60.5395 93.9897 77.7192H106.968L106.967 77.7175Z" fill="#077A47"/>
<path d="M169.008 212.55C142.408 212.55 120.767 189.629 120.767 161.456C120.767 133.282 142.408 110.361 169.008 110.361C195.609 110.361 217.249 133.282 217.249 161.456C217.249 189.629 195.609 212.55 169.008 212.55ZM169.008 134.574C155.013 134.574 143.628 146.634 143.628 161.456C143.628 176.277 155.015 188.337 169.008 188.337C183.002 188.337 194.389 176.277 194.389 161.456C194.389 146.634 183.002 134.574 169.008 134.574Z" fill="#7DBE42"/>
</g>
<defs>
<clipPath id="clip0_5_3">
<rect width="218" height="275.473" fill="white" transform="translate(60 46)"/>
</clipPath>
<clipPath id="clip1_5_3">
<rect width="218" height="275.473" fill="white" transform="translate(60 46)"/>
</clipPath>
</defs>
</svg>
