<svg width="284" height="338" viewBox="0 0 284 338" fill="none" xmlns="http://www.w3.org/2000/svg">
<path d="M39.0145 222.288C39.0145 220.092 40.7999 218.311 43.0008 218.311H60.2706C44.8465 201.952 34.296 180.978 30.932 157.708L17.6658 144.474C16.1088 142.921 13.5869 142.921 12.0299 144.474L0.678223 155.798C3.88494 187.926 17.8877 216.924 39.0167 239.126V222.286L39.0145 222.288Z" fill="#007F41"/>
<path d="M278.424 150.885L271.993 157.299C270.436 158.853 267.915 158.853 266.358 157.299L259.927 150.885L254.207 145.179C254.144 146.887 254.054 148.59 253.923 150.281C252.254 172.041 244.32 192.072 231.932 208.595V227.379C231.932 229.575 233.717 231.356 235.918 231.356H251.892C271.263 207.791 283.166 177.908 284 145.323L278.424 150.885Z" fill="#007F41"/>
<path d="M12.0279 126.022C13.5849 124.469 16.1068 124.469 17.6639 126.022L24.0945 132.437L29.8209 138.149C30.5596 114.402 38.711 92.4825 52.0871 74.6644V55.9419C52.0871 53.7463 50.3017 51.9653 48.1007 51.9653H32.1124C12.745 75.5387 0.829137 105.428 0 138.022L5.59722 132.439L12.0279 126.024V126.022Z" fill="#006E3B"/>
<path d="M157.689 11.9983C159.246 13.5515 159.246 16.0672 157.689 17.6204L151.258 24.0353L145.532 29.7476C169.338 30.4845 191.311 38.6159 209.173 51.959H227.942C230.143 51.959 231.928 50.1781 231.928 47.9825V32.0334C208.296 12.7137 178.333 0.827099 145.661 0L151.258 5.58346L157.689 11.9983Z" fill="#006136"/>
<path d="M222.838 244.405C220.637 244.405 218.852 242.624 218.852 240.428V223.203C208.329 233.075 195.907 240.955 182.186 246.218L156.634 282.619L142.009 303.453L127.384 282.619L101.831 246.216C92.1379 242.497 83.097 237.468 74.9112 231.358H56.0801C53.8791 231.358 52.0938 233.139 52.0938 235.335V251.262C61.2896 258.783 71.4374 265.185 82.339 270.24L122.956 328.105C132.214 341.296 151.799 341.296 161.057 328.105L201.674 270.24C215.755 263.714 228.579 254.938 239.711 244.401H222.834L222.838 244.405Z" fill="#009348"/>
<path d="M245.007 61.0336C245.007 63.2291 243.222 65.0101 241.021 65.0101H223.762C239.197 81.3824 249.762 102.361 253.12 125.644L266.354 138.845C267.911 140.399 270.432 140.399 271.99 138.845L283.358 127.504C280.15 95.3743 266.136 66.3678 245.005 44.165V61.0314L245.007 61.0336Z" fill="#006E3B"/>
<path d="M61.1861 38.9168C63.387 38.9168 65.1724 40.6977 65.1724 42.8933V60.1098C81.585 44.7129 102.615 34.1733 125.956 30.8241L139.192 17.6206C140.749 16.0673 140.749 13.5517 139.192 11.9984L127.825 0.659668C95.6157 3.86065 66.5378 17.8397 44.2803 38.9189H61.1882L61.1861 38.9168Z" fill="#006136"/>
<path d="M142.011 204.354C107.357 204.354 79.1646 176.23 79.1646 141.662C79.1646 107.093 107.357 78.9697 142.011 78.9697C176.665 78.9697 204.857 107.093 204.857 141.662C204.857 176.23 176.665 204.354 142.011 204.354ZM142.011 108.679C123.779 108.679 108.947 123.476 108.947 141.662C108.947 159.847 123.781 174.645 142.011 174.645C160.241 174.645 175.075 159.847 175.075 141.662C175.075 123.476 160.241 108.679 142.011 108.679Z" fill="#7DBE42"/>
</svg>
