<svg width="628" height="132" viewBox="0 0 628 132" fill="none" xmlns="http://www.w3.org/2000/svg">
<g clip-path="url(#clip0_73_536)">
<path d="M104.005 1.82149H9.98157C6.83322 1.82149 4.38451 2.63957 2.63328 4.27789C0.87776 5.91406 0 8.31449 0 11.4684C0 14.6223 0.87776 16.9044 2.63328 18.6611C4.38451 20.4221 6.83322 21.2983 9.98157 21.2983H45.3774V119.621C45.3774 123.384 46.3775 126.327 48.3734 128.448C50.3693 130.573 53.2386 131.636 56.9922 131.636C60.7457 131.636 63.7696 130.573 65.7076 128.448C67.6412 126.327 68.6112 123.384 68.6112 119.621V21.2983H104.007C107.151 21.2983 109.6 20.4221 111.355 18.6611C113.111 16.9044 113.989 14.5039 113.989 11.4684C113.989 8.4329 113.111 5.91406 111.355 4.27574C109.6 2.63742 107.151 1.81934 104.007 1.81934L104.005 1.82149Z" fill="url(#paint0_linear_73_536)"/>
<path d="M222.159 90.6693C219.374 85.4529 216.141 81.6316 212.448 79.2011C210.733 78.073 208.864 77.2334 206.875 76.6306C210.004 75.8986 212.961 74.9793 215.626 73.7414C222.159 70.7059 227.151 66.3378 230.6 60.6306C234.049 54.9277 235.774 48.1289 235.774 40.2387C235.774 28.1053 231.963 18.665 224.337 11.9287C216.717 5.18815 205.887 1.82324 191.85 1.82324H148.108C144.356 1.82324 141.452 2.82217 139.396 4.82432C137.336 6.82647 136.312 9.77373 136.312 13.6553V119.625C136.312 123.388 137.308 126.331 139.304 128.452C141.3 130.577 144.174 131.64 147.925 131.64C151.677 131.64 154.703 130.577 156.64 128.452C158.574 126.331 159.544 123.388 159.544 119.625V78.8394H176.784C181.383 78.8394 185.16 79.5369 188.128 80.9298C191.094 82.327 193.665 85.0913 195.844 89.214L214.176 123.083C215.747 125.995 217.56 128.15 219.62 129.543C221.676 130.941 224.34 131.638 227.61 131.638C230.881 131.638 233.353 130.88 235.051 129.36C236.744 127.845 237.65 125.877 237.772 123.446C237.89 121.016 237.227 118.527 235.776 115.978L222.161 90.6693H222.159ZM187.856 61.5391H159.542V20.2064H187.856C196.204 20.2064 202.524 21.9373 206.821 25.397C211.117 28.8566 213.266 33.9869 213.266 40.7813C213.266 47.5757 211.117 52.8889 206.821 56.3485C202.524 59.8082 196.202 61.5391 187.856 61.5391Z" fill="url(#paint1_linear_73_536)"/>
<path d="M334.515 10.1937C332.942 6.67593 331.034 4.1571 328.796 2.63718C326.555 1.12157 324.044 0.36377 321.263 0.36377C318.481 0.36377 315.786 1.12157 313.547 2.63718C311.307 4.1571 309.403 6.67593 307.828 10.1937L259.912 116.704C258.701 119.498 258.279 122.017 258.641 124.26C259.004 126.508 260.064 128.299 261.82 129.632C263.571 130.964 265.906 131.634 268.807 131.634C271.951 131.634 274.37 130.842 276.065 129.268C277.759 127.692 279.392 125.145 280.965 121.623L289.889 100.502H352.308L361.371 121.623C362.822 125.023 364.485 127.537 366.359 129.175C368.237 130.818 370.866 131.636 374.254 131.636C377.04 131.636 379.276 131.001 380.974 129.722C382.667 128.448 383.695 126.661 384.058 124.355C384.421 122.047 383.936 119.498 382.607 116.706L334.508 10.1958L334.515 10.1937ZM320.9 27.128H321.263L344.396 81.931H297.93L320.898 27.128H320.9Z" fill="url(#paint2_linear_73_536)"/>
<path d="M508.03 104.327C506.579 102.995 504.794 102.232 502.676 102.05C500.557 101.867 498.169 102.571 495.505 104.144C491.514 106.575 487.275 108.362 482.802 109.516C478.326 110.667 473.789 111.242 469.188 111.242C460.595 111.242 453.336 109.485 447.407 105.963C441.477 102.446 437 97.2852 433.978 90.4865C430.952 83.6921 429.442 75.4962 429.442 65.9074C429.442 56.3186 430.952 48.0043 433.978 41.3283C437 34.6566 441.477 29.5587 447.407 26.0366C453.336 22.5145 460.595 20.7535 469.188 20.7535C473.664 20.7535 478.083 21.3003 482.44 22.3961C486.794 23.4876 490.846 25.2487 494.598 27.6749C497.261 29.3778 499.707 30.1313 501.95 29.9483C504.186 29.7653 506.064 28.9494 507.575 27.4919C509.09 26.0366 510.086 24.2454 510.571 22.1206C511.052 20 510.872 17.8149 510.026 15.5673C509.178 13.324 507.485 11.4101 504.944 9.82992C500.102 6.676 494.473 4.24543 488.063 2.54898C481.648 0.846071 475.115 0 468.46 0C458.539 0 449.613 1.54575 441.692 4.6394C433.762 7.73305 427.077 12.1658 421.632 17.9333C416.187 23.6986 412.013 30.6179 409.109 38.6911C406.201 46.76 404.75 55.8364 404.75 65.9074C404.75 79.3821 407.296 91.0678 412.376 100.956C417.458 110.85 424.746 118.499 434.245 123.897C443.745 129.298 455.148 132 468.458 132C475.358 132 482.161 131.059 488.88 129.175C495.595 127.296 501.373 124.598 506.212 121.076C508.391 119.498 509.841 117.647 510.567 115.522C511.292 113.401 511.41 111.335 510.929 109.333C510.444 107.326 509.479 105.662 508.026 104.325L508.03 104.327Z" fill="url(#paint3_linear_73_536)"/>
<path d="M618.564 111.608H563.752V74.2863H614.572C617.716 74.2863 620.074 73.494 621.65 71.916C623.221 70.3401 624.008 68.0344 624.008 64.9989C624.008 61.9634 623.218 59.6598 621.65 58.0818C620.077 56.5059 617.716 55.7158 614.572 55.7158H563.752V20.3896H618.564C621.585 20.3896 623.918 19.5716 625.551 17.9332C627.184 16.2949 628 13.9569 628 10.9235C628 7.89018 627.184 5.76747 625.551 4.18727C623.918 2.60923 621.585 1.82129 618.564 1.82129H553.766C549.774 1.82129 546.718 2.8848 544.6 5.00536C542.482 7.13022 541.426 10.1959 541.426 14.2002V117.798C541.426 121.806 542.482 124.872 544.6 126.992C546.718 129.117 549.774 130.181 553.766 130.181H618.564C621.585 130.181 623.918 129.393 625.551 127.815C627.184 126.239 628 123.933 628 120.898C628 117.862 627.184 115.554 625.551 113.976C623.918 112.4 621.585 111.61 618.564 111.61V111.608Z" fill="url(#paint4_linear_73_536)"/>
</g>
<defs>
<linearGradient id="paint0_linear_73_536" x1="56.9922" y1="131.636" x2="56.9922" y2="1.82149" gradientUnits="userSpaceOnUse">
<stop stop-color="#00AA4C"/>
<stop offset="1" stop-color="#005F35"/>
</linearGradient>
<linearGradient id="paint1_linear_73_536" x1="187.047" y1="-0.000223795" x2="187.047" y2="-0.000223795" gradientUnits="userSpaceOnUse">
<stop stop-color="#00AA4C"/>
<stop offset="1" stop-color="#005F35"/>
</linearGradient>
<linearGradient id="paint2_linear_73_536" x1="321.348" y1="-6.25397e-05" x2="321.348" y2="0.36377" gradientUnits="userSpaceOnUse">
<stop stop-color="#00AA4C"/>
<stop offset="1" stop-color="#005F35"/>
</linearGradient>
<linearGradient id="paint3_linear_73_536" x1="457.987" y1="132" x2="457.987" y2="0" gradientUnits="userSpaceOnUse">
<stop stop-color="#00AA4C"/>
<stop offset="1" stop-color="#005F35"/>
</linearGradient>
<linearGradient id="paint4_linear_73_536" x1="584.713" y1="130.181" x2="584.713" y2="-2.4085e-05" gradientUnits="userSpaceOnUse">
<stop stop-color="#00AA4C"/>
<stop offset="1" stop-color="#005F35"/>
</linearGradient>
<clipPath id="clip0_73_536">
<rect width="628" height="132" fill="white"/>
</clipPath>
</defs>
</svg>
